 <svg  version="1.0" xmlns="http://www.w3.org/2000/svg"  width="300.000000pt" height="300.000000pt" viewBox="0 0 300.000000 300.000000"  preserveAspectRatio="xMidYMid meet">  <g transform="translate(0.000000,300.000000) scale(0.050000,-0.050000)" fill="#284050" stroke="none"> <path d="M2938 4904 c-61 -55 -65 -64 -42 -113 64 -140 -93 -294 -196 -191 -21 21 -34 52 -28 68 13 34 -57 84 -167 123 -96 33 -97 31 -39 -84 27 -53 61 -149 75 -213 21 -93 32 -113 57 -102 171 72 493 86 706 31 l135 -35 21 101 c11 55 43 150 71 209 63 136 55 142 -84 70 -96 -49 -114 -67 -116 -114 -4 -97 -109 -118 -196 -39 -38 34 -48 164 -15 197 13 13 -2 42 -48 86 l-67 65 -67 -59z"/> <path d="M2780 4333 c-683 -149 -930 -1023 -430 -1522 557 -557 1510 -199 1565 589 42 609 -515 1067 -1135 933z m511 -135 c738 -276 645 -1367 -129 -1529 -761 -159 -1272 748 -750 1329 210 234 570 316 879 200z"/> <path d="M2540 3962 c0 -9 14 -28 30 -42 25 -21 30 -95 30 -440 0 -345 -5 -419 -30 -440 -55 -46 -31 -60 103 -60 l134 0 -44 46 c-41 44 -43 64 -43 430 0 457 -6 451 208 221 l152 -164 0 84 c0 78 99 208 182 240 42 15 19 -243 -25 -291 l-44 -46 147 0 147 0 -44 46 c-54 59 -64 331 -13 374 53 44 33 52 -105 44 -129 -8 -139 -12 -232 -101 l-96 -93 -94 105 -93 105 -135 0 c-74 0 -135 -8 -135 -18z"/> <path d="M2841 3621 c-69 -128 -7 -221 204 -301 177 -68 235 -107 235 -159 0 -145 -218 -172 -341 -43 -86 91 -119 79 -119 -43 0 -170 397 -210 529 -53 131 156 55 300 -205 387 -154 51 -223 104 -196 148 12 20 -43 103 -68 103 -10 0 -28 -17 -39 -39z"/> <path d="M3865 2417 c-91 -21 -116 -70 -40 -81 45 -6 45 -8 50 -411 l6 -404 -51 -13 c-130 -32 -55 -78 130 -78 158 0 180 4 180 35 0 19 -13 35 -29 35 -45 0 -74 72 -67 164 9 124 37 113 163 -64 l115 -160 129 0 c138 0 163 22 75 64 -45 22 -302 323 -305 357 -2 22 199 162 253 177 117 31 65 72 -99 78 -160 6 -194 -13 -120 -68 32 -23 26 -35 -74 -137 -149 -151 -147 -154 -134 209 l11 320 -54 -2 c-30 -1 -92 -11 -139 -21z"/> <path d="M1460 2360 c0 -26 13 -40 39 -40 65 0 71 -43 61 -433 -10 -372 -11 -377 -55 -383 -26 -4 -45 -21 -45 -40 0 -30 26 -34 200 -34 215 0 271 34 139 84 l-61 23 6 165 c8 214 22 214 180 -7 174 -243 180 -248 341 -260 154 -12 201 41 70 77 -63 18 -394 420 -395 480 0 43 295 308 358 321 43 8 62 24 62 50 0 34 -18 37 -190 37 -156 0 -190 -5 -190 -30 0 -16 17 -30 39 -30 101 0 74 -55 -136 -280 l-141 -150 -1 196 -1 196 60 21 c130 45 72 77 -140 77 -187 0 -200 -3 -200 -40z"/> <path d="M3581 2114 c-28 -13 -70 -55 -95 -92 l-46 -68 0 86 0 85 -100 -13 c-169 -23 -207 -55 -109 -92 l50 -19 -5 -246 c-6 -239 -7 -245 -52 -252 -29 -4 -44 -18 -40 -37 10 -49 376 -50 376 -1 0 20 -15 35 -36 35 -67 0 -84 43 -84 208 0 219 94 328 209 241 57 -43 66 -37 82 55 20 119 -43 165 -150 110z"/> <path d="M2340 2080 c0 -17 20 -39 44 -50 76 -35 325 -620 294 -694 -31 -75 -85 -104 -139 -76 -82 45 -175 -43 -118 -111 36 -43 165 -36 227 13 70 55 95 105 253 508 103 261 145 346 182 364 87 45 55 70 -92 70 -147 0 -194 -29 -103 -63 29 -11 52 -25 52 -32 0 -30 -148 -408 -156 -399 -15 14 -164 388 -164 410 0 11 18 20 40 20 25 0 40 13 40 35 0 31 -22 35 -180 35 -147 0 -180 -5 -180 -30z"/> </g> </svg> 